<svg viewBox="0 0 1496 400" xmlns="http://www.w3.org/2000/svg"><g><g><g><g><g><line x1="50" y1="378" x2="45" y2="378" style="visibility: inherit;" fill="rgb(0, 0, 0)" stroke="rgb(204, 204, 204)" stroke-width="1px"></line><line x1="50" y1="319.68" x2="45" y2="319.68" style="visibility: inherit;" fill="rgb(0, 0, 0)" stroke="rgb(204, 204, 204)" stroke-width="1px"></line><line x1="50" y1="261.36" x2="45" y2="261.36" style="visibility: inherit;" fill="rgb(0, 0, 0)" stroke="rgb(204, 204, 204)" stroke-width="1px"></line><line x1="50" y1="203.04000000000008" x2="45" y2="203.04000000000008" style="visibility: inherit;" fill="rgb(0, 0, 0)" stroke="rgb(204, 204, 204)" stroke-width="1px"></line><line x1="50" y1="144.72000000000003" x2="45" y2="144.72000000000003" style="visibility: inherit;" fill="rgb(0, 0, 0)" stroke="rgb(204, 204, 204)" stroke-width="1px"></line><line x1="50" y1="86.40000000000009" x2="45" y2="86.40000000000009" style="visibility: inherit;" fill="rgb(0, 0, 0)" stroke="rgb(204, 204, 204)" stroke-width="1px"></line><line x1="50" y1="28.080000000000098" x2="45" y2="28.080000000000098" style="visibility: inherit;" fill="rgb(0, 0, 0)" stroke="rgb(204, 204, 204)" stroke-width="1px"></line></g><g transform="translate(40, 0)"><text x="0" y="378" dx="0em" dy="0.3em" style="text-anchor: end; visibility: hidden; font-family: &quot;Helvetica Neue&quot;, sans-serif; font-size: 12px; font-weight: 200;" fill="rgb(50, 49, 63)" stroke="none" stroke-width="1px">0.45</text><text x="0" y="319.68" dx="0em" dy="0.3em" style="text-anchor: end; visibility: inherit; font-family: &quot;Helvetica Neue&quot;, sans-serif; font-size: 12px; font-weight: 200;" fill="rgb(50, 49, 63)" stroke="none" stroke-width="1px">0.5</text><text x="0" y="261.36" dx="0em" dy="0.3em" style="text-anchor: end; visibility: inherit; font-family: &quot;Helvetica Neue&quot;, sans-serif; font-size: 12px; font-weight: 200;" fill="rgb(50, 49, 63)" stroke="none" stroke-width="1px">0.55</text><text x="0" y="203.04000000000008" dx="0em" dy="0.3em" style="text-anchor: end; visibility: inherit; font-family: &quot;Helvetica Neue&quot;, sans-serif; font-size: 12px; font-weight: 200;" fill="rgb(50, 49, 63)" stroke="none" stroke-width="1px">0.6</text><text x="0" y="144.72000000000003" dx="0em" dy="0.3em" style="text-anchor: end; visibility: inherit; font-family: &quot;Helvetica Neue&quot;, sans-serif; font-size: 12px; font-weight: 200;" fill="rgb(50, 49, 63)" stroke="none" stroke-width="1px">0.65</text><text x="0" y="86.40000000000009" dx="0em" dy="0.3em" style="text-anchor: end; visibility: inherit; font-family: &quot;Helvetica Neue&quot;, sans-serif; font-size: 12px; font-weight: 200;" fill="rgb(50, 49, 63)" stroke="none" stroke-width="1px">0.7</text><text x="0" y="28.080000000000098" dx="0em" dy="0.3em" style="text-anchor: end; visibility: inherit; font-family: &quot;Helvetica Neue&quot;, sans-serif; font-size: 12px; font-weight: 200;" fill="rgb(50, 49, 63)" stroke="none" stroke-width="1px">0.75</text></g><line x1="50" y1="0" x2="50" y2="378" fill="rgb(0, 0, 0)" stroke="rgb(204, 204, 204)" stroke-width="1px"></line></g></g><g transform="translate(50, 0)" clip-path="url(#clip_0)"><clipPath id="clip_0"><rect width="1446" height="378"></rect></clipPath><g><g><g><line x1="2.4160401002506178" y1="0" x2="2.4160401002506178" y2="378" fill="rgb(0, 0, 0)" stroke="rgb(60, 60, 60)" stroke-width="1px" opacity="0.25"></line><line x1="147.98245614035088" y1="0" x2="147.98245614035088" y2="378" fill="rgb(0, 0, 0)" stroke="rgb(60, 60, 60)" stroke-width="1px" opacity="0.25"></line><line x1="293.5488721804511" y1="0" x2="293.5488721804511" y2="378" fill="rgb(0, 0, 0)" stroke="rgb(60, 60, 60)" stroke-width="1px" opacity="0.25"></line><line x1="439.1152882205514" y1="0" x2="439.1152882205514" y2="378" fill="rgb(0, 0, 0)" stroke="rgb(60, 60, 60)" stroke-width="1px" opacity="0.25"></line><line x1="584.6817042606516" y1="0" x2="584.6817042606516" y2="378" fill="rgb(0, 0, 0)" stroke="rgb(60, 60, 60)" stroke-width="1px" opacity="0.25"></line><line x1="730.2481203007519" y1="0" x2="730.2481203007519" y2="378" fill="rgb(0, 0, 0)" stroke="rgb(60, 60, 60)" stroke-width="1px" opacity="0.25"></line><line x1="875.8145363408522" y1="0" x2="875.8145363408522" y2="378" fill="rgb(0, 0, 0)" stroke="rgb(60, 60, 60)" stroke-width="1px" opacity="0.25"></line><line x1="1021.3809523809523" y1="0" x2="1021.3809523809523" y2="378" fill="rgb(0, 0, 0)" stroke="rgb(60, 60, 60)" stroke-width="1px" opacity="0.25"></line><line x1="1166.9473684210525" y1="0" x2="1166.9473684210525" y2="378" fill="rgb(0, 0, 0)" stroke="rgb(60, 60, 60)" stroke-width="1px" opacity="0.25"></line><line x1="1312.513784461153" y1="0" x2="1312.513784461153" y2="378" fill="rgb(0, 0, 0)" stroke="rgb(60, 60, 60)" stroke-width="1px" opacity="0.25"></line></g><g><line x1="0" y1="378" x2="1446" y2="378" fill="rgb(0, 0, 0)" stroke="rgb(60, 60, 60)" stroke-width="1px" opacity="0.25"></line><line x1="0" y1="319.68" x2="1446" y2="319.68" fill="rgb(0, 0, 0)" stroke="rgb(60, 60, 60)" stroke-width="1px" opacity="0.25"></line><line x1="0" y1="261.36" x2="1446" y2="261.36" fill="rgb(0, 0, 0)" stroke="rgb(60, 60, 60)" stroke-width="1px" opacity="0.25"></line><line x1="0" y1="203.04000000000008" x2="1446" y2="203.04000000000008" fill="rgb(0, 0, 0)" stroke="rgb(60, 60, 60)" stroke-width="1px" opacity="0.25"></line><line x1="0" y1="144.72000000000003" x2="1446" y2="144.72000000000003" fill="rgb(0, 0, 0)" stroke="rgb(60, 60, 60)" stroke-width="1px" opacity="0.25"></line><line x1="0" y1="86.40000000000009" x2="1446" y2="86.40000000000009" fill="rgb(0, 0, 0)" stroke="rgb(60, 60, 60)" stroke-width="1px" opacity="0.25"></line><line x1="0" y1="28.080000000000098" x2="1446" y2="28.080000000000098" fill="rgb(0, 0, 0)" stroke="rgb(60, 60, 60)" stroke-width="1px" opacity="0.25"></line></g></g></g><g><g><line x1="0" y1="902.8799999999999" x2="1446" y2="902.8799999999999" fill="rgb(0, 0, 0)" stroke="rgb(153, 153, 153)" stroke-width="1.5px"></line></g></g><g><g><line x1="2.4160401002506178" y1="0" x2="2.4160401002506178" y2="378" fill="rgb(0, 0, 0)" stroke="rgb(153, 153, 153)" stroke-width="1.5px"></line></g></g><g><g><g><g><g><path stroke="rgb(204, 51, 17)" stroke-width="2px" d="M2.4160401002506178,387.35928528785706L31.52932330827067,358.6147469329834L60.64260651629072,305.10884330749514L89.75588972431076,334.3894028949738L118.86917293233081,306.865755443573L147.98245614035088,275.6415800857544L177.0957393483709,272.8748484420777L206.20902255639098,265.5812749671936L235.322305764411,277.71370885849L264.43558897243105,256.19791391372684L293.5488721804511,288.4924631881714L322.66215538847115,247.77528923034671L351.7754385964912,287.111391620636L380.8887218045113,270.67653568267826L410.00200501253136,284.193586807251L439.1152882205514,275.37176187515263L468.22857142857134,263.906955986023L497.34185463659145,251.29446676254275L526.4551378446115,271.81031444549564L555.5684210526315,237.7921544837952L584.6817042606516,260.7534686851502L613.7949874686717,246.10528066635135L642.9082706766917,236.99834249496465L672.0215538847118,268.4197541999817L701.1348370927318,252.59704702377323L730.2481203007519,229.13412540435795L759.3614035087719,272.8058122444153L788.474686716792,273.907262878418L817.587969924812,263.06211421966555L846.7012531328321,232.36374023437503L875.8145363408522,248.4311678695679L904.9278195488722,230.7622116851807L934.0411027568923,240.5109153556824L963.1543859649122,244.92040260314945L992.2676691729322,249.41276109695437L1021.3809523809523,263.31274412155153L1050.4942355889723,279.4835522460938L1079.6075187969925,267.0071887779236L1108.7208020050125,271.60487440109256L1137.8340852130325,208.85145738601688L1166.9473684210525,236.9718542861939L1196.0606516290727,285.7232287216187L1225.1739348370927,229.520463924408L1254.2872180451127,256.7219076919556L1283.4005012531327,208.70191371917727L1312.513784461153,238.97571161270145L1341.627067669173,256.5487262535096L1370.740350877193,225.56509998321536L1399.8536340852131,288.04939401626586L1428.966917293233,250.33797128677372L1458.0802005012529,251.41661842346195" style="fill: none;" fill="none"></path></g><g><path stroke="rgb(238, 51, 119)" stroke-width="2px" d="M2.4160401002506178,253.11506183624272L31.52932330827067,224.6581743049622L60.64260651629072,156.1542436408997L89.75588972431076,202.15376432418827L118.86917293233081,166.49368303298954L147.98245614035088,125.34039218902592L177.0957393483709,120.60046279907232L206.20902255639098,114.38414600372323L235.322305764411,122.22305677413945L264.43558897243105,103.79199102401742L293.5488721804511,140.84718750000005L322.66215538847115,92.01551416397098L351.7754385964912,146.27177799224862L380.8887218045113,125.51280887603764L410.00200501253136,137.86695116043094L439.1152882205514,130.25155637741094L468.22857142857134,109.71457374572759L497.34185463659145,97.79620073318483L526.4551378446115,117.08809850692757L555.5684210526315,82.49839113235481L584.6817042606516,111.75138490676886L613.7949874686717,93.74134958267217L642.9082706766917,83.29359357833869L672.0215538847118,119.51340339660646L701.1348370927318,108.85172555923464L730.2481203007519,74.83843219757085L759.3614035087719,118.73335693359377L788.474686716792,123.1020342636109L817.587969924812,109.29889657974252L846.7012531328321,82.14007032394414L875.8145363408522,102.11426542282112L904.9278195488722,73.14416015625005L934.0411027568923,84.63642757415778L963.1543859649122,94.08576581954964L992.2676691729322,101.42244346618656L1021.3809523809523,120.27453964233405L1050.4942355889723,132.73630331039433L1079.6075187969925,112.93605440139777L1108.7208020050125,123.52341230392463L1137.8340852130325,45.323128681182936L1166.9473684210525,87.496736984253L1196.0606516290727,139.23342292785648L1225.1739348370927,75.92340591430673L1254.2872180451127,108.31042058944712L1283.4005012531327,33.966987018585314L1312.513784461153,85.84160631179816L1341.627067669173,107.46835973739627L1370.740350877193,70.40085771560672L1399.8536340852131,141.5031356620789L1428.966917293233,99.15940492630011L1458.0802005012529,103.24873941421515" style="fill: none;" fill="none"></path></g><g><path stroke="rgb(0, 119, 187)" stroke-width="2px" d="M2.4160401002506178,401.8790298271179L31.52932330827067,365.0201659011841L60.64260651629072,307.89962985992435L89.75588972431076,341.22249172210695L118.86917293233081,308.7182615089417L147.98245614035088,272.8778379249573L177.0957393483709,266.2354155349732L206.20902255639098,261.16344497680666L235.322305764411,276.6733688163757L264.43558897243105,251.01894767761235L293.5488721804511,288.85189636230473L322.66215538847115,244.81806495666507L351.7754385964912,285.0262620735169L380.8887218045113,264.43943155288696L410.00200501253136,275.8809472846985L439.1152882205514,266.22012050628666L468.22857142857134,253.2693330574036L497.34185463659145,236.52982795715334L526.4551378446115,256.9046832847596L555.5684210526315,222.99261520385747L584.6817042606516,247.82451141357424L613.7949874686717,233.15602272033695L642.9082706766917,219.447088508606L672.0215538847118,250.99809082031254L701.1348370927318,238.40680606842045L730.2481203007519,214.01999519348146L759.3614035087719,255.70562255859377L788.474686716792,256.56756694793705L817.587969924812,239.72871368408207L846.7012531328321,222.3493202018738L875.8145363408522,234.29181764602663L904.9278195488722,214.55893638610846L934.0411027568923,223.0708979415894L963.1543859649122,226.7028415489197L992.2676691729322,230.94888055801394L1021.3809523809523,244.59148996353153L1050.4942355889723,264.6587761688233L1079.6075187969925,245.23735731124881L1108.7208020050125,249.12292030334476L1137.8340852130325,180.83909900665287L1166.9473684210525,219.3212521362305L1196.0606516290727,265.65170162200934L1225.1739348370927,213.147483329773L1254.2872180451127,233.60666988372807L1283.4005012531327,174.20835645675663L1312.513784461153,217.69643342971804L1341.627067669173,238.80795295715336L1370.740350877193,199.77622163772588L1399.8536340852131,270.41916206359866L1428.966917293233,229.9854327964783L1458.0802005012529,225.80245101928713" style="fill: none;" fill="none"></path></g><g><path stroke="rgb(51, 187, 238)" stroke-width="2px" d="M2.4160401002506178,263.20345418930054L31.52932330827067,230.19712989807132L60.64260651629072,157.0373925018311L89.75588972431076,207.38111846923832L118.86917293233081,164.45374334335332L147.98245614035088,124.42936466217049L177.0957393483709,116.14724567413339L206.20902255639098,111.25311458587652L235.322305764411,122.14254930496222L264.43558897243105,99.9832507896424L293.5488721804511,143.61287630081182L322.66215538847115,89.33401754379275L351.7754385964912,145.8677111434937L380.8887218045113,118.6167671012879L410.00200501253136,133.05193708419807L439.1152882205514,123.35301177978522L468.22857142857134,105.8354763793946L497.34185463659145,88.49807470321662L526.4551378446115,109.47214754104618L555.5684210526315,70.44938467025764L584.6817042606516,103.64077880859378L613.7949874686717,85.70541103363041L642.9082706766917,70.43680103302006L672.0215538847118,109.26503894805916L701.1348370927318,97.17925489425664L730.2481203007519,61.842593936920196L759.3614035087719,109.05514944076543L788.474686716792,112.268843536377L817.587969924812,94.9054403114319L846.7012531328321,71.57794921875006L875.8145363408522,88.81447322845463L904.9278195488722,61.33431232452398L934.0411027568923,72.85174701690681L963.1543859649122,78.29052017211922L992.2676691729322,86.07332599639898L1021.3809523809523,108.47372978210456L1050.4942355889723,121.79625595092779L1079.6075187969925,99.66365421295171L1108.7208020050125,111.4689830589295L1137.8340852130325,22.470409183502284L1166.9473684210525,71.76851137161265L1196.0606516290727,125.91597192764286L1225.1739348370927,61.056568508148246L1254.2872180451127,92.01537511825569L1283.4005012531327,11.287866096496657L1312.513784461153,70.80409029006967L1341.627067669173,97.67265861511237L1370.740350877193,51.45914657592783L1399.8536340852131,130.20720079422L1428.966917293233,86.06060331344611L1458.0802005012529,83.25132368087776" style="fill: none;" fill="none"></path></g></g></g></g></g></g><g transform="translate(50, 378)" clip-path="url(#clip_1)"><clipPath id="clip_1"><rect width="1446" height="22"></rect></clipPath><g><g><line x1="2.4160401002506178" y1="0" x2="2.4160401002506178" y2="5" style="visibility: inherit;" fill="rgb(0, 0, 0)" stroke="rgb(204, 204, 204)" stroke-width="1px"></line><line x1="147.98245614035088" y1="0" x2="147.98245614035088" y2="5" style="visibility: inherit;" fill="rgb(0, 0, 0)" stroke="rgb(204, 204, 204)" stroke-width="1px"></line><line x1="293.5488721804511" y1="0" x2="293.5488721804511" y2="5" style="visibility: inherit;" fill="rgb(0, 0, 0)" stroke="rgb(204, 204, 204)" stroke-width="1px"></line><line x1="439.1152882205514" y1="0" x2="439.1152882205514" y2="5" style="visibility: inherit;" fill="rgb(0, 0, 0)" stroke="rgb(204, 204, 204)" stroke-width="1px"></line><line x1="584.6817042606516" y1="0" x2="584.6817042606516" y2="5" style="visibility: inherit;" fill="rgb(0, 0, 0)" stroke="rgb(204, 204, 204)" stroke-width="1px"></line><line x1="730.2481203007519" y1="0" x2="730.2481203007519" y2="5" style="visibility: inherit;" fill="rgb(0, 0, 0)" stroke="rgb(204, 204, 204)" stroke-width="1px"></line><line x1="875.8145363408522" y1="0" x2="875.8145363408522" y2="5" style="visibility: inherit;" fill="rgb(0, 0, 0)" stroke="rgb(204, 204, 204)" stroke-width="1px"></line><line x1="1021.3809523809523" y1="0" x2="1021.3809523809523" y2="5" style="visibility: inherit;" fill="rgb(0, 0, 0)" stroke="rgb(204, 204, 204)" stroke-width="1px"></line><line x1="1166.9473684210525" y1="0" x2="1166.9473684210525" y2="5" style="visibility: inherit;" fill="rgb(0, 0, 0)" stroke="rgb(204, 204, 204)" stroke-width="1px"></line><line x1="1312.513784461153" y1="0" x2="1312.513784461153" y2="5" style="visibility: inherit;" fill="rgb(0, 0, 0)" stroke="rgb(204, 204, 204)" stroke-width="1px"></line></g><g transform="translate(0, 8)"><text x="2.4160401002506178" y="0" dx="0em" dy="0.95em" style="text-anchor: middle; visibility: inherit; font-family: &quot;Helvetica Neue&quot;, sans-serif; font-size: 12px; font-weight: 200;" fill="rgb(50, 49, 63)" stroke="none" stroke-width="1px">0</text><text x="147.98245614035088" y="0" dx="0em" dy="0.95em" style="text-anchor: middle; visibility: inherit; font-family: &quot;Helvetica Neue&quot;, sans-serif; font-size: 12px; font-weight: 200;" fill="rgb(50, 49, 63)" stroke="none" stroke-width="1px">5</text><text x="293.5488721804511" y="0" dx="0em" dy="0.95em" style="text-anchor: middle; visibility: inherit; font-family: &quot;Helvetica Neue&quot;, sans-serif; font-size: 12px; font-weight: 200;" fill="rgb(50, 49, 63)" stroke="none" stroke-width="1px">10</text><text x="439.1152882205514" y="0" dx="0em" dy="0.95em" style="text-anchor: middle; visibility: inherit; font-family: &quot;Helvetica Neue&quot;, sans-serif; font-size: 12px; font-weight: 200;" fill="rgb(50, 49, 63)" stroke="none" stroke-width="1px">15</text><text x="584.6817042606516" y="0" dx="0em" dy="0.95em" style="text-anchor: middle; visibility: inherit; font-family: &quot;Helvetica Neue&quot;, sans-serif; font-size: 12px; font-weight: 200;" fill="rgb(50, 49, 63)" stroke="none" stroke-width="1px">20</text><text x="730.2481203007519" y="0" dx="0em" dy="0.95em" style="text-anchor: middle; visibility: inherit; font-family: &quot;Helvetica Neue&quot;, sans-serif; font-size: 12px; font-weight: 200;" fill="rgb(50, 49, 63)" stroke="none" stroke-width="1px">25</text><text x="875.8145363408522" y="0" dx="0em" dy="0.95em" style="text-anchor: middle; visibility: inherit; font-family: &quot;Helvetica Neue&quot;, sans-serif; font-size: 12px; font-weight: 200;" fill="rgb(50, 49, 63)" stroke="none" stroke-width="1px">30</text><text x="1021.3809523809523" y="0" dx="0em" dy="0.95em" style="text-anchor: middle; visibility: inherit; font-family: &quot;Helvetica Neue&quot;, sans-serif; font-size: 12px; font-weight: 200;" fill="rgb(50, 49, 63)" stroke="none" stroke-width="1px">35</text><text x="1166.9473684210525" y="0" dx="0em" dy="0.95em" style="text-anchor: middle; visibility: inherit; font-family: &quot;Helvetica Neue&quot;, sans-serif; font-size: 12px; font-weight: 200;" fill="rgb(50, 49, 63)" stroke="none" stroke-width="1px">40</text><text x="1312.513784461153" y="0" dx="0em" dy="0.95em" style="text-anchor: middle; visibility: inherit; font-family: &quot;Helvetica Neue&quot;, sans-serif; font-size: 12px; font-weight: 200;" fill="rgb(50, 49, 63)" stroke="none" stroke-width="1px">45</text></g><line x1="0" y1="0" x2="1446" y2="0" fill="rgb(0, 0, 0)" stroke="rgb(204, 204, 204)" stroke-width="1px"></line></g></g></g></g></svg>